<svg width="10" height="10" viewBox="0 0 10 10" fill="none" xmlns="http://www.w3.org/2000/svg">
<path fill-rule="evenodd" clip-rule="evenodd" d="M5.10872 0C4.73214 0 4.42201 0.310128 4.42201 0.694096V9.12662C4.42201 9.50321 4.73214 9.81333 5.10872 9.81333C5.49269 9.81333 5.80282 9.50321 5.80282 9.12662V0.694096C5.80282 0.310128 5.49269 0 5.10872 0ZM1.23212 2.7247C0.855538 2.7247 0.54541 3.03482 0.54541 3.41879V9.12662C0.54541 9.50321 0.855538 9.81333 1.23212 9.81333C1.61609 9.81333 1.92622 9.50321 1.92622 9.12662V3.41879C1.92622 3.03482 1.61609 2.7247 1.23212 2.7247ZM8.23961 6.43146C8.23961 6.04749 8.54974 5.73737 8.93371 5.73737C9.31029 5.73737 9.62042 6.04749 9.62042 6.43146V9.12662C9.62042 9.50321 9.31029 9.81333 8.92632 9.81333C8.54974 9.81333 8.23961 9.50321 8.23961 9.12662V6.43146Z" fill="white"/>
</svg>
